HIERARCHY
ROOT Hips
{
	OFFSET 0.000000 0.000000 0.000000
	CHANNELS 6 Xposition Yposition Zposition Xrotation Yrotation Zrotation
	JOINT LeftUpLeg_virtual
	{
		OFFSET 0.000000 0.000000 0.000000
		CHANNELS 3 Xrotation Yrotation Zrotation
		JOINT LeftUpLeg
		{
			OFFSET 13.026900 -6.336304 -1.092800
			CHANNELS 3 Xrotation Yrotation Zrotation
			JOINT LeftLeg
			{
				OFFSET 0.524474 -46.096886 9.782700
				CHANNELS 3 Xrotation Yrotation Zrotation
				JOINT LeftFoot
				{
					OFFSET -0.524474 -53.427422 -12.948200
					CHANNELS 3 Xrotation Yrotation Zrotation
					JOINT LeftToeBase
					{
						OFFSET 0.192200 -14.009700 16.364100
						CHANNELS 3 Xrotation Yrotation Zrotation
						JOINT LeftToe_End
						{
							OFFSET -1.784700 -0.561700 9.474800
							CHANNELS 3 Xrotation Yrotation Zrotation
							End Site
							{
								OFFSET 0 0 0
							}
						}
					}
				}
			}
		}
	}
	JOINT RightUpLeg_virtual
	{
		OFFSET 0.000000 0.000000 0.000000
		CHANNELS 3 Xrotation Yrotation Zrotation
		JOINT RightUpLeg
		{
			OFFSET -12.883000 -6.336304 -1.092800
			CHANNELS 3 Xrotation Yrotation Zrotation
			JOINT RightLeg
			{
				OFFSET -0.524587 -46.096825 9.782800
				CHANNELS 3 Xrotation Yrotation Zrotation
				JOINT RightFoot
				{
					OFFSET 0.524587 -53.427383 -12.948300
					CHANNELS 3 Xrotation Yrotation Zrotation
					JOINT RightToeBase
					{
						OFFSET -0.192200 -14.009700 16.364100
						CHANNELS 3 Xrotation Yrotation Zrotation
						JOINT RightToe_End
						{
							OFFSET 1.784700 -0.561700 9.474800
							CHANNELS 3 Xrotation Yrotation Zrotation
							End Site
							{
								OFFSET 0 0 0
							}
						}
					}
				}
			}
		}
	}
	JOINT Spine_virtual
	{
		OFFSET 0.000000 0.000000 0.000000
		CHANNELS 3 Xrotation Yrotation Zrotation
		JOINT Spine
		{
			OFFSET 0.072000 7.257294 -0.789700
			CHANNELS 3 Xrotation Yrotation Zrotation
			JOINT Spine1
			{
				OFFSET 0.000000 12.508769 -0.658067
				CHANNELS 3 Xrotation Yrotation Zrotation
				JOINT Spine1_split
				{
					OFFSET 0.000000 12.508769 -0.658067
					CHANNELS 3 Xrotation Yrotation Zrotation
					JOINT Spine2
					{
						OFFSET 0.000000 12.508769 -0.658067
						CHANNELS 3 Xrotation Yrotation Zrotation
						JOINT Neck_virtual
						{
							OFFSET 0.000000 0.000000 0.000000
							CHANNELS 3 Xrotation Yrotation Zrotation
							JOINT Neck
							{
								OFFSET 0.000000 14.033295 7.520400
								CHANNELS 3 Xrotation Yrotation Zrotation
								JOINT Head
								{
									OFFSET 0.000000 8.198502 5.703100
									CHANNELS 3 Xrotation Yrotation Zrotation
									JOINT HeadTop_End
									{
										OFFSET 0.000000 17.760803 13.332701
										CHANNELS 3 Xrotation Yrotation Zrotation
										End Site
										{
											OFFSET 0 0 0
										}
									}
								}
							}
						}
						JOINT LeftShoulder_virtual
						{
							OFFSET 0.000000 0.000000 0.000000
							CHANNELS 3 Xrotation Yrotation Zrotation
							JOINT LeftShoulder
							{
								OFFSET 6.292450 5.785301 -0.669000
								CHANNELS 3 Xrotation Yrotation Zrotation
								JOINT LeftShoulder_split
								{
									OFFSET 6.292450 5.785301 -0.669000
									CHANNELS 3 Xrotation Yrotation Zrotation
									JOINT LeftArm
									{
										OFFSET 13.907140 -6.093903 1.965100
										CHANNELS 3 Xrotation Yrotation Zrotation
										JOINT LeftForeArm
										{
											OFFSET 34.140198 0.000000 0.000000
											CHANNELS 3 Xrotation Yrotation Zrotation
											JOINT LeftHand
											{
												OFFSET 40.960209 0.000000 0.000000
												CHANNELS 3 Xrotation Yrotation Zrotation
												End Site
												{
													OFFSET 0 0 0
												}
											}
										}
									}
								}
							}
						}
						JOINT RightShoulder_virtual
						{
							OFFSET 0.000000 0.000000 0.000000
							CHANNELS 3 Xrotation Yrotation Zrotation
							JOINT RightShoulder
							{
								OFFSET -6.292450 5.785301 -0.669000
								CHANNELS 3 Xrotation Yrotation Zrotation
								JOINT RightShoulder_split
								{
									OFFSET -6.292450 5.785301 -0.669000
									CHANNELS 3 Xrotation Yrotation Zrotation
									JOINT RightArm
									{
										OFFSET -13.907140 -6.093903 1.965100
										CHANNELS 3 Xrotation Yrotation Zrotation
										JOINT RightForeArm
										{
											OFFSET -34.140198 0.000000 0.000000
											CHANNELS 3 Xrotation Yrotation Zrotation
											JOINT RightHand
											{
												OFFSET -40.960209 0.000000 0.000000
												CHANNELS 3 Xrotation Yrotation Zrotation
												End Site
												{
													OFFSET 0 0 0
												}
											}
										}
									}
								}
							}
						}
					}
				}
			}
		}
	}
}
MOTION
Frames: 4
Frame Time: 0.03333333
-3.375315 115.705437 -0.436356 0.000000 0.000000 0.000000 -6.156675 -16.551891 -0.923137 1.354809 21.799372 5.765158 9.135415 5.601302 0.676778 -10.139394 -0.857549 -3.583208 1.420876 0.355233 -1.020541 0.000000 0.000000 0.000000 -6.080628 -14.116543 -0.689851 -13.003554 -7.193815 -10.983570 17.547249 -10.986688 -0.756083 4.018382 -3.068464 6.313866 -4.140884 -0.043397 0.458142 0.000000 0.000000 0.000000 -5.976170 -17.051639 -1.280415 10.029005 2.307327 -0.025963 -4.509966 1.402347 -1.030514 0.921772 0.417971 0.212185 0.000000 0.000000 0.000000 -5.658146 3.779027 -1.300177 5.138025 3.491900 1.392944 1.378350 -6.621195 4.770581 0.000000 0.000000 0.000000 -6.204278 3.854624 -1.594009 2.360770 -12.513233 -2.586481 -2.360429 -2.348877 -0.089148 15.138600 6.277798 -75.016644 3.569940 -9.855148 0.867530 0.000000 0.000000 0.000000 -5.032074 3.888115 -1.541346 1.125088 3.011932 4.528871 -2.907301 -0.897605 -1.461704 0.470076 7.326305 80.060513 2.342009 19.873475 1.703248 0.000000 0.000000 0.000000 
-3.276473 115.630135 -0.474037 0.000000 0.000000 0.000000 -6.216197 -16.965281 -0.885514 0.991483 21.647028 5.835154 9.813571 5.595058 0.745183 -10.240567 -0.884748 -3.646609 1.477805 0.343010 -1.059847 0.000000 0.000000 0.000000 -6.115503 -14.470365 -0.672043 -13.076303 -7.338235 -10.900699 17.358116 -11.055902 -0.845859 4.219136 -3.132324 6.475564 -4.465393 -0.029888 0.469494 0.000000 0.000000 0.000000 -6.091793 -17.156132 -1.289740 9.947769 2.278168 -0.027058 -4.551731 1.384100 -1.072781 0.801341 0.512512 0.181422 0.000000 0.000000 0.000000 -5.796160 3.762910 -1.335824 5.187554 3.494056 1.447923 1.402824 -6.643307 4.764677 0.000000 0.000000 0.000000 -6.220173 3.843263 -1.646658 2.340294 -12.445053 -2.720920 -2.340628 -2.257170 -0.052236 15.102645 6.693914 -74.737569 3.387197 -9.765122 0.681696 0.000000 0.000000 0.000000 -5.027264 3.889482 -1.600483 1.088517 3.109848 4.693256 -2.799573 -0.859508 -1.437328 0.543925 7.387913 80.198968 2.413112 20.458093 1.708182 0.000000 0.000000 0.000000 
-3.136117 115.446381 -0.606071 0.000000 0.000000 0.000000 -6.168314 -17.318187 -0.923618 0.057401 21.360121 6.229236 11.447336 5.395504 0.830722 -10.442085 -1.163635 -3.603597 1.427952 0.322036 -1.121497 0.000000 0.000000 0.000000 -6.198062 -14.686913 -0.757009 -13.083582 -7.897734 -10.773149 17.274867 -10.970229 -0.920917 3.851643 -3.091323 6.761174 -4.260111 0.025158 0.497424 0.000000 0.000000 0.000000 -6.084797 -17.297206 -1.344805 9.842037 2.229492 0.018930 -4.588408 1.355892 -1.136386 0.762967 0.521878 0.162680 0.000000 0.000000 0.000000 -5.936020 3.737123 -1.399742 5.244142 3.494379 1.421487 1.382695 -6.740240 4.931558 0.000000 0.000000 0.000000 -6.220651 3.816502 -1.704653 2.288951 -12.340685 -2.942664 -2.331604 -2.292214 -0.071126 15.117335 7.083819 -74.079706 3.440707 -9.558442 0.562829 0.000000 0.000000 0.000000 -5.016029 3.876902 -1.665929 1.024893 3.132016 4.987832 -2.838379 -0.891251 -1.454546 0.616207 7.992558 80.043929 2.667035 21.066943 1.767263 0.000000 0.000000 0.000000 
-2.942974 115.176292 -0.894329 0.000000 0.000000 0.000000 -6.039280 -17.494276 -0.988662 -1.281929 21.074130 6.801268 13.635026 5.112343 0.897301 -10.717999 -1.638745 -3.383988 1.304784 0.287524 -1.153658 0.000000 0.000000 0.000000 -6.311506 -14.690127 -0.891825 -13.107239 -8.741589 -10.678560 17.222015 -10.708869 -0.984315 3.083586 -2.953477 7.153905 -3.550497 0.116997 0.546242 0.000000 0.000000 0.000000 -5.948194 -17.446948 -1.427632 9.751722 2.168365 0.081185 -4.607128 1.333035 -1.206722 0.818757 0.545984 0.165801 0.000000 0.000000 0.000000 -6.068888 3.711540 -1.473311 5.299373 3.478281 1.334164 1.339254 -6.896100 5.242467 0.000000 0.000000 0.000000 -6.202204 3.784370 -1.755923 2.212369 -12.189135 -3.232167 -2.235814 -2.459795 -0.106297 15.047412 7.289602 -73.203502 3.688817 -9.269823 0.471654 0.000000 0.000000 0.000000 -4.993960 3.861146 -1.723729 0.946888 3.071800 5.382361 -2.981843 -0.913569 -1.503057 0.706157 8.943704 79.576253 3.089085 21.599210 1.891730 0.000000 0.000000 0.000000 
